<?xml version="1.0" encoding="UTF-8"?>
<svg width="64px" height="64px" viewBox="0 0 64 64" version="1.1" xmlns="http://www.w3.org/2000/svg" xmlns:xlink="http://www.w3.org/1999/xlink">
    <style>
    path {
        fill: #4C146A;
    }
    @media (prefers-color-scheme: dark) {
        path {
            fill: #5fb6e8;
        }
    }
    </style>
    <title>Favicon</title>
    <defs>
        <path d="M17.9895061,40 L19.0260902,41.370185 L18.3531289,41.8634557 C15.6515335,43.8558164 13.7522119,45.4095966 12.6669602,46.5108457 L12.4703452,46.715002 C12.2849793,46.912277 12.1334175,47.0885235 12.0161678,47.2402782 L11.9592867,47.315106 L12.0185816,47.3147148 L12.158148,47.3094109 C13.8788485,47.2175208 18.0518487,46.0916939 24.3536148,43.9433537 L25.4218595,43.5764212 L26,45.1859037 L24.9324876,45.5529165 C16.9896769,48.265483 12.5083067,49.3718594 10.9605004,48.8906843 C10.1293845,48.6323108 9.80945674,47.8813228 10.1118509,47.0839177 C10.30068,46.5859806 10.7329413,46.018623 11.4170617,45.3244181 L11.612296,45.1296742 C12.893018,43.8727354 15.0144951,42.1678815 17.9895061,40 Z M35.2206353,29 C37.8389996,31.9437992 38.6241121,35.236106 37.5047366,38.7247728 C36.4755946,41.932216 32.8102331,44.2961221 27.6147404,46 L27,43.9358858 C31.5997466,42.4273847 34.8055959,40.3598323 35.5516387,38.0347015 C36.4208219,35.3257886 35.8320446,32.856798 33.7140705,30.4755821 L35.2206353,29 Z M24.4342776,24 L26,25.3919281 C21.6854733,30.2566081 20.2209508,35.9499121 21.5885323,42.5757622 L19.5379623,43 C18.0380226,35.7328819 19.6760944,29.3649079 24.4342776,24 Z M38.0318835,22 L57,26.9897767 L51.8535474,27.7686682 C43.6065875,29.0000921 38.7603735,29.3181094 37,28.676553 L37.5961199,26.8643705 C38.6682408,27.2550978 41.8611559,27.1412719 47.0209609,26.5003294 L47.4291471,26.4486581 L37.5901194,23.8605091 L38.0318835,22 Z M40,19.4588156 L38.3767552,21.3772676 C34.1735229,17.7553975 30.5860236,16.7402955 27.4913546,18.1193011 C24.3356255,19.5255154 22.6971359,22.0866063 22.4964391,26 L20,25.8696161 C20.2480309,21.0332515 22.4350468,17.61477 26.4816012,15.8115978 C30.5892157,13.9812169 35.1363162,15.2678431 40,19.4588156 Z M32.5,21 C33.8807119,21 35,22.1192881 35,23.5 C35,24.8807119 33.8807119,26 32.5,26 C31.1192881,26 30,24.8807119 30,23.5 C30,22.1192881 31.1192881,21 32.5,21 Z" id="path-1"></path>
        <filter x="-15.2%" y="-15.1%" width="131.7%" height="142.0%" filterUnits="objectBoundingBox" id="filter-2">
            <feMorphology radius="0.15" operator="dilate" in="SourceAlpha" result="shadowSpreadOuter1"></feMorphology>
            <feOffset dx="0" dy="2" in="shadowSpreadOuter1" result="shadowOffsetOuter1"></feOffset>
            <feGaussianBlur stdDeviation="2" in="shadowOffsetOuter1" result="shadowBlurOuter1"></feGaussianBlur>
            <feComposite in="shadowBlurOuter1" in2="SourceAlpha" operator="out" result="shadowBlurOuter1"></feComposite>
            <feColorMatrix values="0 0 0 0 0   0 0 0 0 0   0 0 0 0 0  0 0 0 0.5 0" type="matrix" in="shadowBlurOuter1"></feColorMatrix>
        </filter>
    </defs>
    <g id="Favicon" stroke="none" stroke-width="1" fill="none" fill-rule="evenodd">
        <g id="Combined-Shape" fill-rule="nonzero">
            <use fill="black" fill-opacity="1" filter="url(#filter-2)" xlink:href="#path-1"></use>
            <use stroke-width="0.3" xlink:href="#path-1"></use>
        </g>
    </g>
</svg>