<?xml version="1.0" encoding="utf-8"?>
<!-- Generator: Adobe Illustrator 24.2.1, SVG Export Plug-In . SVG Version: 6.00 Build 0)  -->
<svg version="1.1" id="Capa_1" xmlns="http://www.w3.org/2000/svg" xmlns:xlink="http://www.w3.org/1999/xlink" x="0px" y="0px"
	 viewBox="0 0 512 512" style="enable-background:new 0 0 512 512;" xml:space="preserve">
<style type="text/css">
	.st0{fill:#213751;}
</style>
<g>
	<path class="st0" d="M63.6,512l143.7-143.7l48.2,143.5l142.2-397.6L0.2,256.4l143.5,48.2L0,448.4L63.6,512z M91.8,255.5l256.4-91.7
		l-91.7,256.4l-36.1-107.4L63.6,469.6l-21.2-21.2l156.8-156.8L91.8,255.5z"/>
	<path class="st0" d="M425.3,206.6l21.2-21.2l60,60l-21.2,21.2L425.3,206.6z"/>
	<path class="st0" d="M245.4,26.6l21.2-21.2l60,60l-21.2,21.2L245.4,26.6z"/>
	<path class="st0" d="M425.3,65.4l60-60l21.2,21.2l-60,60L425.3,65.4z"/>
	<path class="st0" d="M361,0h30v60h-30V0z"/>
	<path class="st0" d="M451.1,121H512v30h-60.9L451.1,121z"/>
</g>
</svg>
