<?xml version="1.0" encoding="utf-8"?>
<!-- Generator: Adobe Illustrator 24.2.1, SVG Export Plug-In . SVG Version: 6.00 Build 0)  -->
<svg version="1.1" id="Capa_1" xmlns="http://www.w3.org/2000/svg" xmlns:xlink="http://www.w3.org/1999/xlink" x="0px" y="0px"
	 viewBox="0 0 512 512" style="enable-background:new 0 0 512 512;" xml:space="preserve">
<style type="text/css">
	.st0{fill:#213751;}
</style>
<g>
	<g>
		<path class="st0" d="M507.2,69.3c-2.9-1.4-6.4-1.1-9,0.9L359.6,176.3c-6.8,5.3-8.7,14.8-4.3,22.2l-21.9,6l-31.9-13.6
			c-0.6-0.2-1.1-0.4-1.7-0.5c-30.6-5.9-46.5-0.2-54.7,6.1h-87.2c3-7.2,0.8-15.4-5.4-20.2L13.7,70.2c-2.6-2-6.1-2.3-9-0.9
			C1.8,70.8,0,73.7,0,77v204.8c0,3.1,1.6,5.9,4.3,7.4l52.8,30.2c2.6,1.5,5.5,2.2,8.4,2.2c4.3,0,8.5-1.7,11.7-4.6l9.9,7.9
			c-5.8,7.4-7,17.3-3.3,25.8c3.7,8.6,11.9,14.4,21.2,15.1c0.7,0.1,1.4,0.1,2.2,0.1c1.3,0,2.6-0.1,3.9-0.3c0.5,6.1,2.9,11.9,6.9,16.5
			l0,0c5.1,6.1,12.4,9.8,20.3,10.5c0.8,0.1,1.7,0.1,2.5,0.1c0.1,0,0.3,0,0.4,0c0.2,5.5,2.3,10.9,5.9,15.1c4.9,5.7,12,9,19.5,9
			c3,0,5.9-0.5,8.7-1.6c2.8,10.2,11.7,17.5,22.3,18.3c0.7,0.1,1.4,0.1,2.2,0.1c5.9,0,11.6-2,16.1-5.8l13.4-10.3l31.5,21.1
			c4.9,3.2,10.6,5,16.5,5c2,0,4-0.2,6-0.6c12.8-2.6,22.5-13.2,23.8-26.2c8.5,2.6,17.8,1.2,25.2-3.8s12.1-13.1,12.7-22.1
			c9.9,3.3,20.8,1.1,28.7-5.7s11.7-17.2,10-27.5c8.6-1,16.2-5.7,21-12.8c4.8-7.2,6.2-16.1,3.9-24.4l16.8-16.8l6.9,10.3
			c5,7.5,14.9,9.8,22.7,5.4l52.8-30.2c2.7-1.5,4.3-4.3,4.3-7.4V77C512,73.7,510.2,70.8,507.2,69.3z M17.1,276.8V94.3l95.3,72.9
			L34.2,286.6L17.1,276.8z M65.6,304.6L49,295.1l76.9-117.6l16.1,12.3L65.6,304.6z M112.5,346.9c-1.7,1.5-3.9,2.2-6.1,1.9
			c-3.3-0.3-6.1-2.5-7.2-5.6s-0.2-6.6,2.2-8.9l21.3-16.5c1.5-1.3,3.4-2,5.4-2c0.2,0,0.5,0,0.7,0c3.3,0.3,6.1,2.5,7.2,5.6
			c1.1,3.1,0.2,6.6-2.2,8.9L112.5,346.9z M139.7,375.6c-5.1-0.4-9.4-3.8-11.1-8.7c-1.6-4.8-0.2-10.2,3.6-13.6l26.9-20.8
			c4-3.3,9.5-4,14.1-1.6c4.6,2.4,7.3,7.3,6.9,12.4c-0.2,3.2-1.7,6.1-4,8.3l-7.3,5.7l-19.8,15.3C146.5,374.8,143.1,375.9,139.7,375.6
			z M183.3,388.8L183.3,388.8l-11.4,8.9c-1.7,1.4-3.9,2.1-6.1,2s-4.3-1.2-5.7-2.9l0,0c-1.4-1.7-2.1-3.9-1.9-6.1
			c0.1-2.1,1.1-4.1,2.7-5.5l19.9-15.6l5.9-4.5c0.1-0.1,0.1-0.1,0.2-0.2l6-4.7c1.5-1.3,3.4-2,5.4-2c0.2,0,0.5,0,0.7,0
			c3.3,0.3,6.1,2.5,7.2,5.6c1.1,3.1,0.2,6.6-2.2,8.9l-20,15.6L183.3,388.8z M226.5,398.1l-21.3,16.5c-1.7,1.5-3.9,2.2-6.1,1.9
			c-3.3-0.3-6.1-2.5-7.2-5.6c-1.1-3.1-0.2-6.6,2.2-8.8l0.4-0.3l21-16.2c3.5-2.9,8.6-2.6,11.6,0.8C230.1,389.8,229.8,395,226.5,398.1
			z M390.4,335.5c-3.9,5.8-11.7,7.4-17.6,3.7l-0.1,0l-56-38.7c-2.5-1.7-5.8-2-8.5-0.7c-2.8,1.3-4.6,4-4.9,7s1.2,6,3.7,7.7l54.2,37.5
			l0,0c4.3,2.9,6.5,8,5.5,13.1c-1,5.1-5,9-10,10c-3.3,0.7-6.7,0-9.5-1.8l-56.1-38.7c-3.9-2.7-9.2-1.7-11.9,2.2
			c-2.7,3.9-1.7,9.2,2.2,11.9l41,28.3l0,0c5.9,4.2,7.5,12.2,3.7,18.3c-3.8,5.8-11.7,7.5-17.5,3.7l-15.1-10.7l0,0h0L278,377.2
			c-2.5-1.8-5.7-2.1-8.5-0.8c-2.8,1.3-4.7,3.9-4.9,7s1.1,6,3.6,7.8l15.8,11.2c0.8,0.6,1.5,1.3,2.2,2c4.8,4.6,5.4,12.1,1.2,17.3
			c-4.1,5.2-11.6,6.4-17.1,2.7l-28.1-18.8c4.8-7.4,5.4-16.7,1.6-24.6c-3.8-7.9-11.4-13.3-20.1-14.2c0.2-13.3-10-24.4-23.2-25.5
			c-1.1-0.1-2.2-0.1-3.3,0c-0.3-10.5-6.1-20.1-15.3-25.2s-20.4-4.9-29.4,0.4c-2.6-8-8.9-14.3-17-16.6c-8.1-2.4-16.8-0.6-23.3,4.7
			l-11.7,9L87.1,303l59.7-89.5h74.9c-6.5,5.7-9.5,14.4-8,22.8c1.8,10.3,9.9,18.3,20.3,19.9c15.8,2.2,31.9-0.1,46.4-6.7l21.8,13.8
			c0.5,0.3,1,0.5,1.5,0.7l83.2,53.6c1.6,1.1,3,2.6,4,4.3c0,0.1,0.1,0.2,0.1,0.3C393.3,326.5,393,331.5,390.4,335.5z M399.1,305.8
			c-0.9-0.9-1.9-1.7-2.9-2.5L311.8,249c-0.4-0.2-0.8-0.3-1.2-0.5l-25.1-16c-2.7-1.7-6.1-1.8-8.8-0.2c-12.3,6.4-26.2,8.8-39.9,7
			c-3.2-0.4-5.8-2.8-6.3-6c-0.6-3.3,1-6.7,4-8.2c6.4-3.3,12.4-7.4,17.9-12c0.6-0.5,1.1-1.1,1.4-1.8c0.3-0.3,0.6-0.6,0.9-0.9
			c2.5-2.1,12.8-8.6,40.9-3.4l33.8,14.4c1.8,0.8,3.7,0.9,5.6,0.4l30.2-8.2l50.5,75.7L399.1,305.8z M446.4,304.6l-76.5-114.7
			l16.1-12.3L463,295.1L446.4,304.6z M494.9,276.8l-17.1,9.8l-78.1-119.5l95.3-72.9L494.9,276.8L494.9,276.8z"/>
	</g>
</g>
</svg>
