<?xml version="1.0" encoding="UTF-8"?>
<svg viewBox="0 0 512 512" version="1.1" xmlns="http://www.w3.org/2000/svg" xmlns:xlink="http://www.w3.org/1999/xlink">
    <title>Send me an email!</title>
    <defs>
        <path d="M6.47581427,103.44 L180.649,264.903 L7.51277062,398.369773 L17.6430778,411.489474 L192.975,276.329 L222.253566,303.471697 C241.147411,320.98682 270.257202,321.161971 289.355366,303.997151 L289.931013,303.471697 L317.91,277.533 L493.161251,411.50977 L503.238683,398.349477 L330.246,266.098 L504.860209,104.227883 C507.5272,110.622192 509,117.639101 509,125 L509,378 C509,407.823376 484.823376,432 455,432 L56,432 C26.1766235,432 2,407.823376 2,378 L2,125 C2,117.335547 3.59677742,110.044041 6.47581427,103.44 Z M455,71 C470.545435,71 484.556638,77.5688264 494.409328,88.0821966 L277.040071,289.588862 C265.225738,300.541079 246.958842,300.541079 235.144509,289.588862 L17.1467991,87.4975405 C26.9670243,77.3258592 40.7447704,71 56,71 L455,71 Z M263.919857,94 C210.987238,94 181,135.384008 181,176.291426 C181,219.18464 210.987238,245 248.649311,245 C263.761613,245 278.399183,240.392951 284.728943,234.991583 L284.649821,224.983167 C274.522205,230.305103 264.315467,231.973172 251.102093,231.973172 C218.899438,231.973172 195.874936,211.16202 195.874936,175.973698 C195.874936,141.897422 220.798367,106.947396 263.998979,106.947396 C300.869832,106.947396 321.204186,126.884797 321.204186,156.115729 C321.204186,179.389269 308.069934,193.687007 295.014803,193.687007 C288.685043,193.687007 287.735579,190.827459 289.397141,182.80484 L300.078612,132.683325 L281.880551,132.683325 L274.047473,141.500263 C271.119959,134.58969 264.631955,130.459232 255.374681,130.459232 C233.695253,130.459232 218.97856,154.527091 218.97856,180.024724 C218.97856,197.896896 226.416029,207.508154 238.205207,207.508154 C248.570189,207.508154 257.352731,201.709627 262.970393,190.668595 C263.445125,202.106786 270.566105,209.652814 286.074017,209.652814 C313.608474,209.652814 336,187.650184 336,153.971068 C336,118.54445 307.595202,94 263.919857,94 Z M263.603369,141.420831 C268.113323,141.420831 270.882593,145.233561 270.012251,152.223567 L264.948443,175.814834 C263.128637,184.711205 257.906585,190.827459 252.526289,190.827459 C248.411945,190.827459 246.196529,187.014729 246.196529,179.309837 C246.196529,164.058916 253.317509,141.420831 263.603369,141.420831 Z" id="path-1"></path>
    </defs>
    <g id="Artboard" stroke="none" stroke-width="1" fill="none" fill-rule="evenodd">
        <mask id="mask-2" fill="currentColor">
            <use xlink:href="#path-1"></use>
        </mask>
        <use id="Combined-Shape" fill="currentColor" xlink:href="#path-1"></use>
        <g id="@" mask="url(#mask-2)">
            <g transform="translate(193.337162, 123.862305)"></g>
        </g>
    </g>
</svg>